<?xml version="1.0" encoding="UTF-8"?> <!-- Generator: Adobe Illustrator 25.2.3, SVG Export Plug-In . SVG Version: 6.00 Build 0) --> <svg xmlns="http://www.w3.org/2000/svg" xmlns:xlink="http://www.w3.org/1999/xlink" version="1.1" id="Layer_3" x="0px" y="0px" viewBox="0 0 135.4 49.8" style="enable-background:new 0 0 135.4 49.8;" xml:space="preserve"> <style type="text/css"> .st0{fill:#E40428;} </style> <g> <polygon class="st0" points="2.9,23.1 6.5,23.1 6.5,21.6 6.5,12.8 6.5,8.8 13,8.8 13,5.2 6.5,5.2 2.9,5.2 2.9,5.2 2.9,18.4 2.9,18.4 "></polygon> <path class="st0" d="M22.2,18.4c1.3-1.4,2.2-3.3,2.2-5.4c0-4.3-3.5-7.8-7.8-7.8h0v3.6h0v0c2.3,0,4.2,1.9,4.2,4.2 c0,2.3-1.8,4.1-4.1,4.2c0,0,0,0-0.1,0v3.6v0c0,0,0,0,0,0v6v8.4c1.5,0,2.9-0.8,3.6-2v-4.3v-7.4c3.8,1.4,6.6,5.2,6.6,9.5 c0,5.6-4.5,10.1-10.1,10.1S6.5,36.5,6.5,30.9v-4.2H2.9v4.2c0,7.6,6.1,13.7,13.7,13.7s13.7-6.1,13.7-13.7 C30.3,25.3,27,20.5,22.2,18.4z"></path> <g> <path class="st0" d="M84.3,12.4V26h7.1v2.9H81.2V12.4H84.3z"></path> <path class="st0" d="M109.4,20.7h2.8v6.2c-1.7,1.3-4.2,2.1-6.5,2.1c-4.9,0-8.7-3.7-8.7-8.4c0-4.7,3.9-8.3,8.9-8.3 c2.4,0,4.8,0.9,6.5,2.4l-1.8,2.3c-1.2-1.2-3-1.9-4.7-1.9c-3.2,0-5.7,2.4-5.7,5.5c0,3.1,2.5,5.6,5.7,5.6c1.1,0,2.4-0.4,3.6-1V20.7z "></path> <path class="st0" d="M132.4,12.4v2.8h-9.2v4.1h8V22h-8v4.2h9.2v2.8H120V12.4H132.4z"></path> <g> <polygon class="st0" points="69.7,28.9 72.9,28.9 72.9,15.5 69.7,18.3 "></polygon> <rect x="69.7" y="12.4" class="st0" width="3.2" height="2.7"></rect> </g> <path class="st0" d="M58.9,20.2c1.8-0.4,2.9-1.8,2.9-3.7c0-2.5-2.2-4.1-5.7-4.1h-7.3v2.7h3.2h4c1.6,0,2.6,0.7,2.6,2 c0,1.3-1,2.1-2.6,2.1h-4h-3.2v9.8h7.5c3.8,0,6.1-1.7,6.1-4.6C62.4,22.1,61.1,20.6,58.9,20.2z M55.9,26.1h-4v-4.4h4 c2,0,3.2,0.8,3.2,2.1C59.1,25.3,57.9,26.2,55.9,26.1z"></path> <g> <path class="st0" d="M51.6,36.2c0,0.8-0.6,1.4-1.4,1.4c-0.8,0-1.4-0.6-1.4-1.4c0-0.8,0.6-1.4,1.4-1.4 C51,34.8,51.6,35.4,51.6,36.2z M49.3,36.2c0,0.5,0.4,0.9,0.9,0.9c0.5,0,0.9-0.4,0.9-0.9c0-0.5-0.4-0.9-0.9-0.9 C49.7,35.3,49.3,35.7,49.3,36.2z"></path> <path class="st0" d="M54.5,37.5L54,36.7c0,0-0.1,0-0.1,0h-0.6v0.8h-0.5v-2.7h1.1c0.7,0,1.1,0.3,1.1,0.9c0,0.4-0.2,0.7-0.5,0.9 l0.6,0.9H54.5z M53.3,36.3h0.6c0.4,0,0.6-0.2,0.6-0.5c0-0.3-0.2-0.5-0.6-0.5h-0.6V36.3z"></path> <path class="st0" d="M58.3,34.8v0.5h-0.8v2.3h-0.5v-2.3H56v-0.5H58.3z"></path> <path class="st0" d="M60.9,37h-1.3l-0.2,0.6h-0.5l1.2-2.7h0.5l1.2,2.7h-0.6L60.9,37z M60.7,36.5l-0.5-1.1l-0.5,1.1H60.7z"></path> <path class="st0" d="M64.5,37.5l-0.8-1.2l-0.4,0.5v0.7h-0.5v-2.7h0.5v1.3l1.2-1.3h0.6L64,36l1.1,1.6H64.5z"></path> <path class="st0" d="M69.1,35.3c-0.2,0-0.4,0.1-0.4,0.3c0,0.6,1.5,0.3,1.5,1.2c0,0.5-0.4,0.8-1,0.8c-0.4,0-0.9-0.2-1.1-0.4 l0.2-0.4c0.3,0.2,0.6,0.4,0.9,0.4c0.3,0,0.5-0.1,0.5-0.3c0-0.6-1.5-0.2-1.5-1.2c0-0.5,0.4-0.8,1-0.8c0.4,0,0.7,0.1,1,0.3 l-0.2,0.4C69.6,35.4,69.3,35.3,69.1,35.3z"></path> <path class="st0" d="M73.1,37h-1.3l-0.2,0.6H71l1.2-2.7h0.5l1.2,2.7h-0.6L73.1,37z M72.9,36.5l-0.5-1.1l-0.5,1.1H72.9z"></path> <path class="st0" d="M76.7,36.2h0.5v1c-0.3,0.2-0.7,0.4-1.1,0.4c-0.8,0-1.4-0.6-1.4-1.4s0.6-1.4,1.5-1.4c0.4,0,0.8,0.2,1.1,0.4 l-0.3,0.4c-0.2-0.2-0.5-0.3-0.8-0.3c-0.5,0-0.9,0.4-0.9,0.9c0,0.5,0.4,0.9,0.9,0.9c0.2,0,0.4-0.1,0.6-0.2V36.2z M75.5,34h0.3 c0,0.1,0.1,0.2,0.2,0.2s0.2-0.1,0.2-0.2h0.3c0,0.3-0.2,0.6-0.6,0.6S75.5,34.3,75.5,34z"></path> <path class="st0" d="M79,34.8v2.2h1.2v0.5h-1.7v-2.7H79z"></path> <path class="st0" d="M81.8,34.8v2.7h-0.5v-2.7H81.8z"></path> <path class="st0" d="M85,37.5l-0.8-1.2l-0.4,0.5v0.7h-0.5v-2.7h0.5v1.3l1.2-1.3h0.6l-1,1.1l1.1,1.6H85z"></path> <path class="st0" d="M90.5,36.2H91v1c-0.3,0.2-0.7,0.4-1.1,0.4c-0.8,0-1.4-0.6-1.4-1.4s0.6-1.4,1.5-1.4c0.4,0,0.8,0.2,1.1,0.4 l-0.3,0.4c-0.2-0.2-0.5-0.3-0.8-0.3c-0.5,0-0.9,0.4-0.9,0.9c0,0.5,0.4,0.9,0.9,0.9c0.2,0,0.4-0.1,0.6-0.2V36.2z"></path> <path class="st0" d="M93.5,37.1c0.4,0,0.7-0.3,0.7-0.7v-1.6h0.5v1.6c0,0.7-0.5,1.2-1.2,1.2c-0.7,0-1.2-0.4-1.2-1.2v-1.6h0.5v1.6 C92.8,36.8,93.1,37.1,93.5,37.1z M93.4,34.2c0,0.1-0.1,0.3-0.3,0.3c-0.1,0-0.3-0.1-0.3-0.3c0-0.2,0.1-0.3,0.3-0.3 C93.3,34,93.4,34.1,93.4,34.2z M94.1,34.2c0,0.1-0.1,0.3-0.3,0.3c-0.1,0-0.3-0.1-0.3-0.3c0-0.2,0.1-0.3,0.3-0.3 C94,34,94.1,34.1,94.1,34.2z"></path> <path class="st0" d="M96.2,34.8L97,37l0.8-2.1h0.5l-1.1,2.7h-0.5l-1.1-2.7H96.2z"></path> <path class="st0" d="M101.4,34.8v0.5H100V36h1.3v0.5H100v0.7h1.5v0.5h-2v-2.7H101.4z"></path> <path class="st0" d="M103.2,34.8l1.4,1.9v-1.9h0.5v2.7h-0.5l-1.4-1.9v1.9h-0.5v-2.7H103.2z"></path> <path class="st0" d="M107.1,34.8v2.2h1.2v0.5h-1.7v-2.7H107.1z"></path> <path class="st0" d="M109.9,34.2c0,0.2-0.1,0.3-0.3,0.3c-0.2,0-0.3-0.1-0.3-0.3c0-0.2,0.1-0.3,0.3-0.3 C109.8,34,109.9,34.1,109.9,34.2z M109.9,34.8v2.7h-0.5v-2.7H109.9z"></path> <path class="st0" d="M113.1,37.5l-0.8-1.2l-0.4,0.5v0.7h-0.5v-2.7h0.5v1.3l1.2-1.3h0.6l-1,1.1l1.1,1.6H113.1z"></path> <path class="st0" d="M118.9,35.5c0,0.3-0.2,0.5-0.5,0.6c0.4,0.1,0.6,0.3,0.6,0.7c0,0.5-0.4,0.7-1,0.7h-1.2v-2.7h1.2 C118.5,34.8,118.9,35.1,118.9,35.5z M118.3,35.6c0-0.2-0.2-0.3-0.4-0.3h-0.7v0.7h0.7C118.2,35.9,118.3,35.8,118.3,35.6z M118.4,36.7c0-0.2-0.2-0.4-0.5-0.4h-0.7v0.7h0.7C118.2,37.1,118.4,37,118.4,36.7z"></path> <path class="st0" d="M120.7,34.2c0,0.2-0.1,0.3-0.3,0.3c-0.2,0-0.3-0.1-0.3-0.3c0-0.2,0.1-0.3,0.3-0.3 C120.6,34,120.7,34.1,120.7,34.2z M120.7,34.8v2.7h-0.5v-2.7H120.7z"></path> <path class="st0" d="M123.8,37.5l-0.5-0.8c0,0-0.1,0-0.1,0h-0.6v0.8h-0.5v-2.7h1.1c0.7,0,1.1,0.3,1.1,0.9c0,0.4-0.2,0.7-0.5,0.9 l0.6,0.9H123.8z M122.6,36.3h0.6c0.4,0,0.6-0.2,0.6-0.5c0-0.3-0.2-0.5-0.6-0.5h-0.6V36.3z"></path> <path class="st0" d="M126.2,34.2c0,0.2-0.1,0.3-0.3,0.3c-0.2,0-0.3-0.1-0.3-0.3c0-0.2,0.1-0.3,0.3-0.3 C126.1,34,126.2,34.1,126.2,34.2z M126.2,34.8v2.7h-0.5v-2.7H126.2z"></path> <path class="st0" d="M128.2,34.8l0.9,1.7l0.8-1.7h0.6v2.7H130l0-1.9l-0.8,1.7h-0.3l-0.8-1.7v1.9h-0.5v-2.7H128.2z"></path> <path class="st0" d="M132.4,34.2c0,0.2-0.1,0.3-0.3,0.3c-0.2,0-0.3-0.1-0.3-0.3c0-0.2,0.1-0.3,0.3-0.3 C132.3,34,132.4,34.1,132.4,34.2z M132.4,34.8v2.7h-0.5v-2.7H132.4z"></path> </g> </g> <g> <rect x="39.1" class="st0" width="0.9" height="12.3"></rect> <rect x="39.1" y="37.6" class="st0" width="0.9" height="12.3"></rect> </g> <g> <path class="st0" d="M40.3,32.7V34l0.6,0.2v0.6l-2.8-1.2V33l2.8-1.2v0.6L40.3,32.7z M39.9,32.8l-1.2,0.5l1.2,0.5V32.8z"></path> <path class="st0" d="M38.1,28.1l0.5,0v1.4h0.8v-1.3h0.5v1.3h1.1V30h-2.8V28.1z"></path> <path class="st0" d="M40,25h0.9v0.5H40l-1.9,1V26l1.3-0.8l-1.3-0.8V24L40,25z"></path> <path class="st0" d="M39.5,19.5c0.8,0,1.4,0.7,1.4,1.5c0,0.8-0.6,1.5-1.4,1.5c-0.8,0-1.4-0.7-1.4-1.5 C38.1,20.2,38.7,19.5,39.5,19.5z M39.5,22c0.5,0,0.9-0.4,0.9-1c0-0.5-0.4-0.9-0.9-0.9c-0.5,0-0.9,0.4-0.9,0.9 C38.6,21.5,39,22,39.5,22z"></path> <path class="st0" d="M38.1,17.1l1.9-1.5h-1.9v-0.5h2.8v0.5L39,17.1h1.9v0.5h-2.8V17.1z"></path> </g> </g> </svg> 