<?xml version="1.0" encoding="UTF-8" standalone="no"?>
<svg
   width="138.84mm"
   height="44mm"
   viewBox="0 0 138.84 44.000001"
   version="1.1"
   id="svg8"
   inkscape:version="1.1 (c68e22c387, 2021-05-23)"
   sodipodi:docname="KY.993 Delta Logo Vector.svg"
   inkscape:export-filename="C:\Users\Özgür\Desktop\KY.993 Delta Logo Vector.png"
   inkscape:export-xdpi="300"
   inkscape:export-ydpi="300"
   xmlns:inkscape="http://www.inkscape.org/namespaces/inkscape"
   xmlns:sodipodi="http://sodipodi.sourceforge.net/DTD/sodipodi-0.dtd"
   xmlns="http://www.w3.org/2000/svg"
   xmlns:svg="http://www.w3.org/2000/svg"
   xmlns:rdf="http://www.w3.org/1999/02/22-rdf-syntax-ns#"
   xmlns:cc="http://creativecommons.org/ns#"
   xmlns:dc="http://purl.org/dc/elements/1.1/">
  <defs
     id="defs2" />
  <sodipodi:namedview
     id="base"
     pagecolor="#ffffff"
     bordercolor="#666666"
     borderopacity="1.0"
     inkscape:pageopacity="1"
     inkscape:pageshadow="2"
     inkscape:zoom="0.70710678"
     inkscape:cx="392.44426"
     inkscape:cy="120.20815"
     inkscape:document-units="mm"
     inkscape:current-layer="g826"
     inkscape:document-rotation="0"
     showgrid="false"
     inkscape:window-width="1244"
     inkscape:window-height="856"
     inkscape:window-x="236"
     inkscape:window-y="61"
     inkscape:window-maximized="0"
     inkscape:pagecheckerboard="true" />
  <metadata
     id="metadata5">
    <rdf:RDF>
      <cc:Work
         rdf:about="">
        <dc:format>image/svg+xml</dc:format>
        <dc:type
           rdf:resource="http://purl.org/dc/dcmitype/StillImage" />
      </cc:Work>
    </rdf:RDF>
  </metadata>
  <g
     inkscape:label="Delta Logo"
     inkscape:groupmode="layer"
     id="layer1"
     style="display:inline">
    <g
       id="g826"
       style="fill:#00000f;fill-opacity:1;stroke:none;stroke-opacity:1"
       inkscape:label="LOGO">
      <path
         style="display:inline;fill:#00000f;fill-opacity:1;stroke:none;stroke-width:0.569144;stroke-miterlimit:4;stroke-dasharray:none;stroke-opacity:1"
         d="M 24.479863,0 0,34.779465 11.139957,38.128972 10.900718,36.982789 6.4281011,33.928324 26.375767,31.417256 26.117346,30.631692 5.6086699,31.644925 21.622767,12.072576 l 8.613191,27.26566 -16.427913,-1.643524 0.319325,1.300259 18.464317,5.008465 2.856633,-5.25309 -0.199857,-0.763758 -2.802302,1.161629 -4.11841,-26.789602 9.072212,15.095706 -5.331366,2.282381 0.143075,0.875018 5.504942,-0.577103 -1.695072,6.861369 0.164886,0.356091 3.69867,-7.567571 z"
         id="path863"
         inkscape:export-xdpi="96"
         inkscape:export-ydpi="96"
         sodipodi:nodetypes="ccccccccccccccccccccccccc"
         inkscape:label="Sembol" />
      <path
         style="display:inline;fill:#00000f;fill-opacity:1;stroke:none;stroke-width:0.051;stroke-miterlimit:4;stroke-dasharray:none;stroke-opacity:1"
         d="m 80.023766,41.093692 c -0.913952,-0.198691 -1.506254,-0.521352 -2.09524,-1.1414 -0.656654,-0.691283 -0.97613,-1.584548 -0.976281,-2.729705 0,-0.970094 0.17027,-1.609083 0.607855,-2.279393 0.532265,-0.815348 1.23033,-1.302123 2.287675,-1.595236 0.370944,-0.102834 1.549363,-0.145364 2.016319,-0.07277 1.255423,0.195171 2.303698,0.938865 2.832237,2.00931 0.272799,0.552486 0.379606,0.987901 0.410646,1.673946 0.03753,0.830187 -0.08126,1.40665 -0.442291,2.145802 -0.226952,0.464656 -0.321187,0.595543 -0.700392,0.972804 -0.491851,0.489323 -0.979815,0.778195 -1.631606,0.965906 -0.561546,0.161719 -1.684865,0.186405 -2.308922,0.05073 z m 1.625517,-1.845131 c 0.643239,-0.300174 1.012648,-1.05615 1.007526,-2.061852 -0.0039,-0.824205 -0.186204,-1.385241 -0.575763,-1.774803 -0.293822,-0.293821 -0.476949,-0.370448 -0.946526,-0.396046 -0.361352,-0.01969 -0.447987,-0.0067 -0.68918,0.103768 -0.495305,0.226758 -0.813517,0.653065 -0.985055,1.319657 -0.0973,0.378148 -0.06924,1.338308 0.05035,1.724841 0.157572,0.509085 0.572018,0.984044 0.988439,1.132764 0.311894,0.111391 0.857004,0.08849 1.15018,-0.04833 z m 7.101585,1.863774 c -0.518895,-0.09283 -1.107223,-0.253142 -1.30574,-0.355799 l -0.154976,-0.08014 0.03289,-0.611484 c 0.0181,-0.336315 0.03289,-0.768845 0.03289,-0.961179 v -0.349695 l 0.164858,0.123802 c 0.214403,0.161007 0.700596,0.400709 1.052564,0.518934 0.402495,0.135197 1.081399,0.132667 1.318862,-0.0049 0.343406,-0.198962 0.437649,-0.652423 0.198722,-0.956166 -0.05634,-0.07159 -0.369362,-0.236283 -0.778655,-0.409643 -1.123092,-0.475699 -1.601694,-0.891639 -1.854413,-1.611642 -0.140168,-0.39935 -0.139114,-1.048101 0.0024,-1.468157 0.374902,-1.112883 1.329675,-1.717433 2.708931,-1.715263 0.616866,10e-4 1.07933,0.08134 1.637925,0.284656 l 0.367757,0.133858 v 0.931628 c 0,0.512397 -0.01928,0.931631 -0.04288,0.931631 -0.0236,0 -0.08191,-0.04314 -0.129633,-0.09587 -0.208808,-0.230728 -1.118544,-0.560353 -1.552179,-0.562395 -0.233978,-0.0012 -0.523426,0.108652 -0.668118,0.253344 -0.119239,0.119242 -0.143496,0.186357 -0.143496,0.39712 0,0.336856 0.161113,0.497696 0.719834,0.718618 1.662496,0.657375 2.229573,1.340817 2.158926,2.60196 -0.03163,0.564147 -0.152875,0.90717 -0.469718,1.328622 -0.64058,0.852087 -1.87852,1.211885 -3.296739,0.958175 z m 9.070049,0.0095 c -1.954123,-0.37162 -3.054861,-1.522277 -3.265786,-3.41391 -0.147753,-1.325019 0.368426,-2.659601 1.339901,-3.464337 0.38059,-0.31527 1.184053,-0.718683 1.732828,-0.870037 0.355901,-0.09816 0.533685,-0.112167 1.445679,-0.113907 1.051081,-0.002 1.499431,0.04909 2.219241,0.252917 l 0.26632,0.07541 v 0.987732 c 0,0.906291 -0.0264,1.099584 -0.12752,0.935872 -0.0537,-0.0868 -0.58924,-0.337391 -0.99023,-0.463306 -0.30715,-0.09644 -0.48884,-0.118631 -0.962005,-0.117466 -0.937273,0.0023 -1.482154,0.221463 -2.02362,0.813912 -0.760086,0.831659 -0.701061,2.422906 0.120356,3.244319 0.446705,0.446708 1.173391,0.670015 1.888252,0.580254 0.556397,-0.06987 0.522269,-0.02327 0.522269,-0.712857 v -0.602023 l -0.804053,-0.01394 -0.804036,-0.01394 0.417569,-0.786247 0.41757,-0.786247 1.451708,-0.01346 1.45172,-0.01346 v 1.917231 1.91723 l -0.16486,0.06583 c -0.48844,0.195051 -1.09204,0.38149 -1.61054,0.49746 -0.720113,0.161064 -1.937455,0.207888 -2.520763,0.09696 z m 6.730993,-3.906921 v -3.781951 h 2.02209 c 1.15321,0 2.13952,0.0221 2.29535,0.05143 0.63746,0.12 1.19946,0.556659 1.47542,1.146361 0.41171,0.87983 0.12683,1.927165 -0.64812,2.382639 -0.0834,0.04904 -0.0636,0.07422 0.18343,0.232312 1.41934,0.908493 1.10364,2.985986 -0.54814,3.607163 -0.27887,0.104874 -0.38301,0.110077 -2.53542,0.126678 l -2.24461,0.01732 z m 3.58254,1.996825 c 0.41399,-0.255863 0.47453,-0.82058 0.12539,-1.16972 -0.22927,-0.229265 -0.46365,-0.296733 -1.03216,-0.297094 l -0.44384,-2e-4 v 0.819148 0.819148 l 0.58328,-0.02873 c 0.4838,-0.02382 0.61467,-0.04813 0.76733,-0.142471 z m -0.90657,-2.304071 0.34814,-0.507256 0.2663,-0.03286 c 0.14673,-0.01811 0.31368,-0.07505 0.3718,-0.126813 0.15739,-0.140175 0.24741,-0.39168 0.20951,-0.58537 -0.0797,-0.407179 -0.30084,-0.523333 -1.09823,-0.576749 l -0.54156,-0.03628 v 1.234482 c 0,0.775535 0.0179,1.216568 0.0479,1.186294 0.0264,-0.02651 0.20462,-0.276454 0.3961,-0.555445 z m -62.22787,0.126907 v -0.202993 h 13.977977 13.97797 l -0.01574,0.190222 -0.01576,0.190221 L 58.96223,37.224845 45,37.237635 Z m 68.88542,-8.7e-5 v -0.202901 h 13.97491 10.97978 v 0.202901 l -2.5e-4,0.202903 H 127.86034 113.88543 Z M 45.00001,18.699814 V 7.715112 l 5.338875,1.018e-4 c 3.077812,5.19e-5 5.62889,0.02166 6.023667,0.050979 1.802176,0.1338358 3.013382,0.4343271 4.317178,1.0710577 1.403223,0.6852914 2.308356,1.3931295 3.300144,2.5808105 1.324948,1.586646 2.224721,4.41016 2.222656,6.974776 -5.99e-4,0.681973 -0.121198,2.086977 -0.227191,2.64573 -0.121772,0.641911 -0.354588,1.421238 -0.633234,2.119682 -0.787028,1.972732 -1.742593,3.269386 -3.298283,4.475615 -1.031727,0.799965 -2.38737,1.403763 -3.840658,1.710607 -1.465375,0.309394 -1.257288,0.300467 -7.483836,0.321085 l -5.719318,0.01895 z m 9.679145,5.779589 c 0.59651,-0.114135 1.247811,-0.355771 1.632671,-0.605726 0.746115,-0.484582 1.548436,-1.391189 1.924217,-2.17432 0.389197,-0.811099 0.61626,-1.953245 0.615124,-3.094145 -0.0018,-1.771021 -0.535491,-3.197727 -1.636632,-4.37485 -0.601271,-0.642763 -1.224557,-0.999163 -2.114548,-1.209121 -0.728872,-0.171948 -1.281402,-0.217056 -2.376997,-0.194057 l -0.925743,0.01943 v 5.846251 c 0,3.215436 0.01711,5.864407 0.03804,5.886607 0.06577,0.06977 2.382215,-0.01174 2.843864,-0.100073 z M 68.993237,18.697394 V 7.715112 h 7.482029 7.482034 v 2.61237 2.61237 h -4.032694 -4.032685 v 1.496407 1.496405 h 3.449345 3.449338 v 2.58701 2.587007 h -3.450038 -3.450029 l 0.01336,1.661264 0.01338,1.661265 4.88234,0.01294 c 2.685286,0.0071 4.881924,0.02994 4.88142,0.05072 -5.98e-4,0.02079 -0.648754,1.190531 -1.440533,2.599437 l -1.439612,2.561644 -6.903827,0.01286 -6.903835,0.01286 z m 18.717758,-2e-4 V 7.71509 h 3.500072 3.500063 v 8.319004 8.319006 h 4.899257 c 2.694583,0 4.891643,0.01891 4.882343,0.04202 -0.009,0.02312 -0.6991,1.221507 -1.53287,2.663098 l -1.51597,2.621095 h -6.866445 -6.86645 V 18.697214 Z m 17.601795,2.638134 v -8.343967 l -3.0055,-0.01308 -3.005486,-0.01308 -0.01314,-2.625052 -0.01314,-2.6250514 h 9.435876 9.43588 l -0.0131,2.6250514 -0.0131,2.625052 -2.9294,0.0131 -2.92941,0.0131 v 8.343954 8.343958 h -3.4747 -3.47471 z m 9.58715,8.313906 c 0,-0.01692 1.9202,-4.930494 4.26712,-10.919047 2.34692,-5.988554 4.27827,-10.9169728 4.29189,-10.9520394 0.0196,-0.050502 0.73627,-0.06105 3.44641,-0.050726 l 3.42167,0.013041 4.20628,10.8552854 c 2.31346,5.970408 4.22894,10.906647 4.25662,10.969421 l 0.0501,0.114132 -3.68887,-0.0012 -3.6892,-0.0012 -0.18629,-0.594886 c -0.10246,-0.327189 -0.36036,-1.137018 -0.57312,-1.799622 l -0.38683,-1.204736 h -3.61891 -3.61891 l -0.18451,0.519939 c -0.10147,0.285968 -0.38624,1.090602 -0.6328,1.78808 l -0.44831,1.26814 -3.45612,0.01304 c -1.90087,0.0072 -3.45612,-7.87e-4 -3.45612,-0.01771 z m 14.08943,-7.54072 c -0.20251,-0.554938 -2.03641,-6.41467 -2.09952,-6.708466 l -0.0872,-0.405805 -0.0945,0.329716 c -0.052,0.181344 -0.58442,1.783811 -1.18315,3.561033 -0.59875,1.777225 -1.08862,3.243829 -1.08862,3.259123 0,0.0153 1.02963,0.02781 2.28808,0.02781 1.80899,0 2.28324,-0.01328 2.26493,-0.06341 z"
         id="path24"
         sodipodi:nodetypes="sscsssssssssssssssssscsscscssssssccscssscsssssccsscssscsssssssscccccccccssssccssssssscccsccccsccsccssscssscccccccccccccccccccccssscsssscccssscssscssssccccccccccccccccccccsccccccccccssscccccccccccccccccccccccscccsscccsscccsscccccscsssscssss"
         inkscape:label="Text" />
    </g>
  </g>
</svg>
