<?xml version="1.0" encoding="utf-8"?>
<!-- Generator: Adobe Illustrator 26.5.0, SVG Export Plug-In . SVG Version: 6.00 Build 0)  -->
<svg version="1.1" id="katman_1" xmlns="http://www.w3.org/2000/svg" xmlns:xlink="http://www.w3.org/1999/xlink" x="0px" y="0px"
	 viewBox="0 0 419.8 66.1" style="enable-background:new 0 0 419.8 66.1;" xml:space="preserve">
<style type="text/css">
	.st0{fill-rule:evenodd;clip-rule:evenodd;fill:#14245A;}
	.st1{fill:#14245A;}
	.st2{fill-rule:evenodd;clip-rule:evenodd;fill:#009EE3;}
</style>
<path class="st0" d="M130.7,55.1l23.5-46.6L177.5,55l-6.5,1.8l-8-16.3h-18.2l-8.1,16.2L130.7,55.1z M147.5,34.9h12.8l-6.4-13.1
	L147.5,34.9z M85.1,9.8h8.8c3.7,0,6.9,0.3,9.6,1c2.7,0.7,5.1,1.7,7,3c2.9,2,5.1,4.7,6.8,8.1c1.7,3.4,2.5,7,2.5,10.9
	c0,3.2-0.6,6.3-1.7,9.1c-1.1,2.8-2.7,5.3-4.8,7.4c-2.3,2.3-4.8,4-7.7,5c-1.4,0.5-2.8,0.9-4.5,1.2c-1.7,0.3-3.4,0.4-5.2,0.4h-11V9.8z
	 M91.6,50.1h4.2c5.1,0,9.3-1.6,12.5-4.7c3.2-3.2,4.8-7.3,4.8-12.5c0-5.1-1.6-9.2-4.8-12.4c-3.2-3.2-7.4-4.8-12.5-4.8h-4.2V50.1z
	 M57.3,17V9.9l6.6-0.7v6.9L57.3,17z M57.3,56.6V19.6l6.6-0.8V56L57.3,56.6z M0,56.8V9l29.9,31.7V9.9L36.6,9v47.7l-30-31.6v30.8
	L0,56.8z"/>
<path class="st1" d="M402.7,32.6c0.4,0,0.8,0.1,1,0.4c0.3,0.3,0.4,0.6,0.4,1c0,0.4-0.1,0.7-0.4,1c-0.3,0.2-0.6,0.4-1,0.4
	c-0.4,0-0.8-0.1-1-0.4c-0.3-0.2-0.4-0.6-0.4-1c0-0.4,0.1-0.8,0.4-1C402,32.8,402.3,32.6,402.7,32.6 M403.9,38.8v20.5h-2.3V38.8
	H403.9z M384.4,31.9h1.9c0.5,1.2,1.3,1.8,2.6,1.8c1.3,0,2.1-0.6,2.6-1.8h1.9c-0.1,1.1-0.6,2-1.5,2.8c-0.8,0.7-1.8,1.1-3,1.1
	c-1.1,0-2.1-0.4-3-1.1C385,33.9,384.5,33,384.4,31.9z M389.8,49h8.5c0,1.6-0.1,2.8-0.3,3.8c-0.3,1.2-0.9,2.4-1.8,3.4
	c-0.9,1.1-2.1,1.9-3.4,2.5c-1.3,0.6-2.7,0.9-4.2,0.9c-2.9,0-5.4-1-7.4-3.1c-2.1-2.1-3.1-4.5-3.1-7.4c0-3,1-5.5,3.1-7.6
	c2.1-2.1,4.6-3.1,7.6-3.1c3.5,0,6.4,1.5,8.7,4.4l-1.7,1.5c-1.8-2.6-4.2-3.9-7-3.9c-2.3,0-4.3,0.8-5.9,2.5c-1.6,1.7-2.4,3.7-2.4,6
	c0,2.2,0.8,4.2,2.4,5.9c1.6,1.7,3.6,2.5,5.8,2.5c1.9,0,3.6-0.6,5-1.8c1.5-1.3,2.3-2.8,2.3-4.6h-6.1V49z M373.9,32.6
	c0.4,0,0.8,0.1,1,0.4c0.3,0.3,0.4,0.6,0.4,1c0,0.4-0.1,0.7-0.4,1c-0.3,0.2-0.6,0.4-1,0.4c-0.4,0-0.8-0.1-1-0.4
	c-0.3-0.2-0.4-0.6-0.4-1c0-0.4,0.1-0.8,0.4-1C373.2,32.8,373.5,32.6,373.9,32.6z M375.1,38.8v20.5h-2.3V38.8H375.1z M364.8,38.8
	v18.4h5.7v2.1h-7.9V38.8H364.8z M340,59.3V37.9l16,16.8V38.8h2.3v21.4l-16-16.7v15.8H340z M325.3,59.3V38.8H336v2.1h-8.3V47h8.1v2.1
	h-8.1v8h8.3v2.1H325.3z M309,38.8l5.8,15.6l5.8-15.6h2.5l-8.3,21.7l-8.3-21.7H309z M292,38.8V51c0,1.2,0,1.9,0.1,2.4
	c0.2,1.7,1.1,2.9,2.7,3.6c0.7,0.3,1.5,0.5,2.3,0.5c1.7,0,3-0.6,4-1.8c0.5-0.6,0.8-1.3,0.9-2.2c0.1-0.5,0.1-1.3,0.1-2.5V38.8h2.3
	v12.8c0,1.3-0.1,2.3-0.3,3c-0.3,1-0.8,1.9-1.5,2.6c-1.5,1.6-3.3,2.3-5.5,2.3c-2.1,0-3.9-0.7-5.3-2.1c-0.8-0.8-1.4-1.7-1.7-2.7
	c-0.2-0.7-0.3-1.8-0.3-3.2V38.8H292z M299.7,32.4c0.4,0,0.8,0.1,1,0.4c0.3,0.3,0.4,0.6,0.4,1c0,0.4-0.1,0.8-0.4,1
	c-0.3,0.3-0.6,0.4-1,0.4c-0.4,0-0.7-0.1-1-0.4c-0.3-0.3-0.4-0.6-0.4-1c0-0.4,0.1-0.8,0.4-1C298.9,32.5,299.3,32.4,299.7,32.4z
	 M294.3,32.4c0.4,0,0.8,0.1,1,0.4c0.3,0.3,0.4,0.6,0.4,1c0,0.4-0.1,0.8-0.4,1c-0.3,0.3-0.6,0.4-1,0.4c-0.4,0-0.7-0.1-1-0.4
	c-0.3-0.3-0.4-0.6-0.4-1c0-0.4,0.1-0.8,0.4-1C293.6,32.5,293.9,32.4,294.3,32.4z M278,49h8.5c0,1.6-0.1,2.8-0.3,3.8
	c-0.3,1.2-0.9,2.4-1.8,3.4c-0.9,1.1-2.1,1.9-3.4,2.5c-1.3,0.6-2.7,0.9-4.2,0.9c-2.9,0-5.4-1-7.4-3.1c-2.1-2.1-3.1-4.5-3.1-7.4
	c0-3,1-5.5,3.1-7.6c2.1-2.1,4.6-3.1,7.6-3.1c3.5,0,6.4,1.5,8.7,4.4l-1.7,1.5c-1.8-2.6-4.2-3.9-7-3.9c-2.3,0-4.3,0.8-5.9,2.5
	c-1.6,1.7-2.4,3.7-2.4,6c0,2.2,0.8,4.2,2.4,5.9c1.6,1.7,3.6,2.5,5.8,2.5c1.9,0,3.6-0.6,5-1.8c1.5-1.3,2.3-2.8,2.3-4.6H278V49z
	 M409.2,27.4V6.9h10.6V9h-8.3v6.1h8.1v2.1h-8.1v8h8.3v2.1H409.2z M392.8,6.9l5.8,15.6l5.8-15.6h2.5l-8.3,21.7l-8.3-21.7H392.8z
	 M379.7,6.9v20.5h-2.3V6.9H379.7z M360.2,0h1.9c0.5,1.2,1.3,1.8,2.6,1.8c1.3,0,2.1-0.6,2.6-1.8h1.9c-0.1,1.1-0.6,2-1.5,2.8
	c-0.8,0.7-1.8,1.1-3,1.1c-1.1,0-2.1-0.4-3-1.1C360.8,2,360.3,1.1,360.2,0z M365.6,17h8.5c0,1.6-0.1,2.8-0.3,3.8
	c-0.3,1.2-0.9,2.4-1.8,3.4c-0.9,1.1-2.1,1.9-3.4,2.5c-1.3,0.6-2.7,0.9-4.2,0.9c-2.9,0-5.4-1-7.4-3.1c-2.1-2.1-3.1-4.5-3.1-7.4
	c0-3,1-5.5,3.1-7.6c2.1-2.1,4.6-3.1,7.6-3.1c3.5,0,6.4,1.5,8.7,4.4l-1.7,1.5c-1.8-2.6-4.2-3.9-7-3.9c-2.3,0-4.3,0.8-5.9,2.5
	c-1.6,1.7-2.4,3.7-2.4,6c0,2.2,0.8,4.2,2.4,5.9c1.6,1.7,3.6,2.5,5.8,2.5c1.9,0,3.6-0.6,5-1.8c1.5-1.3,2.3-2.8,2.3-4.6h-6.1V17z
	 M350.9,6.9v20.5h-2.3V6.9H350.9z M340.6,6.9v18.4h5.7v2.1h-7.9V6.9H340.6z M321.2,0h1.9c0.5,1.2,1.3,1.8,2.6,1.8
	c1.3,0,2.1-0.6,2.6-1.8h1.9c-0.1,1.1-0.6,2-1.5,2.8c-0.8,0.7-1.8,1.1-3,1.1c-1.1,0-2.1-0.4-3-1.1C321.8,2,321.3,1.1,321.2,0z
	 M326.6,17h8.5c0,1.6-0.1,2.8-0.3,3.8c-0.3,1.2-0.9,2.4-1.8,3.4c-0.9,1.1-2.1,1.9-3.4,2.5c-1.3,0.6-2.7,0.9-4.2,0.9
	c-2.9,0-5.4-1-7.4-3.1c-2.1-2.1-3.1-4.5-3.1-7.4c0-3,1-5.5,3.1-7.6c2.1-2.1,4.6-3.1,7.6-3.1c3.5,0,6.4,1.5,8.7,4.4l-1.7,1.5
	c-1.8-2.6-4.2-3.9-7-3.9c-2.3,0-4.3,0.8-5.9,2.5c-1.6,1.7-2.4,3.7-2.4,6c0,2.2,0.8,4.2,2.4,5.9c1.6,1.7,3.6,2.5,5.8,2.5
	c1.9,0,3.6-0.6,5-1.8c1.5-1.3,2.3-2.8,2.3-4.6h-6.1V17z M308,19.4l-3.4-8.2l-3.5,8.2H308z M308.9,21.5h-8.8l-2.5,5.8h-2.5l9.5-21.5
	l9.2,21.5h-2.5L308.9,21.5z M293,9.7l-1.8,1.2c-0.9-1.5-2-2.2-3.5-2.2c-0.9,0-1.7,0.3-2.4,0.9c-0.7,0.6-1,1.4-1,2.3
	c0,0.8,0.4,1.5,1.1,2c0.4,0.3,1.1,0.7,2.1,1.2l1.4,0.6c1.6,0.7,2.8,1.4,3.5,2.1c1,1,1.5,2.2,1.5,3.7c0,1.8-0.6,3.3-1.9,4.5
	c-1.3,1.2-2.8,1.8-4.6,1.8c-1.6,0-3-0.5-4.2-1.4c-1.2-1-1.9-2.2-2.2-3.9l2.2-0.6c0.1,1.1,0.6,2,1.4,2.7c0.8,0.7,1.7,1.1,2.7,1.1
	c1.1,0,2.1-0.4,3-1.2c0.8-0.8,1.3-1.7,1.3-2.9c0-1.1-0.4-1.9-1.2-2.6c-0.5-0.4-1.4-0.9-2.6-1.5l-1.3-0.5c-1.5-0.6-2.5-1.3-3.1-1.9
	c-0.9-0.9-1.3-2-1.3-3.3c0-1.6,0.6-2.8,1.7-3.8c1.1-0.9,2.4-1.4,4-1.4C290.1,6.5,291.9,7.6,293,9.7z M264.9,29l-3.1,4l-1.5-0.8
	l2.6-4L264.9,29z M269.4,9.7l-1.8,1.2c-0.9-1.5-2-2.2-3.5-2.2c-0.9,0-1.7,0.3-2.4,0.9c-0.7,0.6-1,1.4-1,2.3c0,0.8,0.4,1.5,1.1,2
	c0.4,0.3,1.1,0.7,2.1,1.2l1.4,0.6c1.6,0.7,2.8,1.4,3.5,2.1c1,1,1.5,2.2,1.5,3.7c0,1.8-0.6,3.3-1.9,4.5c-1.3,1.2-2.8,1.8-4.6,1.8
	c-1.6,0-3-0.5-4.2-1.4c-1.2-1-1.9-2.2-2.2-3.9l2.2-0.6c0.1,1.1,0.6,2,1.4,2.7c0.8,0.7,1.7,1.1,2.7,1.1c1.1,0,2.1-0.4,3-1.2
	c0.8-0.8,1.3-1.7,1.3-2.9c0-1.1-0.4-1.9-1.2-2.6c-0.5-0.4-1.4-0.9-2.6-1.5l-1.3-0.5c-1.5-0.6-2.5-1.3-3.1-1.9
	c-0.9-0.9-1.3-2-1.3-3.3c0-1.6,0.6-2.8,1.7-3.8c1.1-0.9,2.4-1.4,4-1.4C266.5,6.5,268.3,7.6,269.4,9.7z M253,0.7c0.4,0,0.8,0.1,1,0.4
	c0.3,0.3,0.4,0.6,0.4,1c0,0.4-0.1,0.7-0.4,1c-0.3,0.2-0.6,0.4-1,0.4c-0.4,0-0.8-0.1-1-0.4c-0.3-0.2-0.4-0.6-0.4-1
	c0-0.4,0.1-0.8,0.4-1C252.2,0.9,252.6,0.7,253,0.7z M254.1,6.9v20.5h-2.3V6.9H254.1z"/>
<rect x="212.8" y="0.8" class="st2" width="3.5" height="65.3"/>
</svg>
