<svg width="256" height="256" viewBox="0 0 256 256" xmlns="http://www.w3.org/2000/svg"><g><circle fill="#25D366" cx="128" cy="128" r="128"/><path fill="#FFF" d="M128 48c-44.2 0-80 35.8-80 80 0 15.2 4.2 29.5 12.2 42.1L48 208l38.5-11.9C99.5 200.7 113.5 208 128 208c44.2 0 80-35.8 80-80s-35.8-80-80-80zm0 144c-12.2 0-24.1-3.6-34.2-10.3l-2.4-1.6-22.8 7.1 7.1-22.8-1.6-2.4C67.6 152.1 64 140.2 64 128c0-35.3 28.7-64 64-64s64 28.7 64 64-28.7 64-64 64zm36.6-48.7c-2-1-11.8-5.8-13.6-6.5-1.8-.7-3.1-1-4.4 1-1.3 2-5 6.5-6.1 7.8-1.1 1.3-2.2 1.5-4.2.5-2-1-8.4-3.1-16-9.8-5.9-5.2-9.8-11.6-10.9-13.6-1.1-2-.1-3 1-4 1-1 2.2-2.6 3.3-3.9 1.1-1.3 1.5-2.2 2.2-3.7.7-1.5.4-2.8-.2-3.8-.6-1-4.4-10.6-6-14.5-1.6-3.9-3.2-3.4-4.4-3.5-1.1-.1-2.4-.1-3.7-.1-1.3 0-3.5.5-5.3 2.5-1.8 2-7 6.8-7 16.6 0 9.8 7.2 19.2 8.2 20.5 1 1.3 14.2 21.7 34.4 29.6 4.8 1.7 8.5 2.7 11.4 3.5 4.8 1.2 9.2 1 12.7.6 3.9-.5 11.8-4.8 13.5-9.4 1.7-4.6 1.7-8.5 1.2-9.4-.5-.9-1.8-1.4-3.8-2.4z"/></g></svg>
